<svg width="760" height="230" viewBox="0 0 760 230" fill="none" xmlns="http://www.w3.org/2000/svg" role="img" aria-label="GitHub statistics for Pouya-Mansournia">
  <defs>
    <linearGradient id="accent" x1="0" y1="0" x2="760" y2="0" gradientUnits="userSpaceOnUse">
      <stop offset="0" stop-color="#22d3ee"/>
      <stop offset="1" stop-color="#3b82f6"/>
    </linearGradient>
  </defs>
  <rect width="760" height="230" rx="10" fill="#0a0f1a" stroke="#1f2937"/>
  <rect x="0" y="0" width="760" height="3" fill="url(#accent)"/>
  <text x="24" y="34" font-family="'Segoe UI', Helvetica, Arial, sans-serif" font-size="14" font-weight="700" fill="#e2e8f0" letter-spacing="0.5">GITHUB STATISTICS</text>

  <g font-family="'Segoe UI', Helvetica, Arial, sans-serif" transform="translate(24,60)">
    <text font-size="26" font-weight="700" fill="#22d3ee">35</text>
    <text y="20" font-size="11" fill="#64748b">Public Repos</text>
  </g>
  <g font-family="'Segoe UI', Helvetica, Arial, sans-serif" transform="translate(200,60)">
    <text font-size="26" font-weight="700" fill="#22d3ee">17</text>
    <text y="20" font-size="11" fill="#64748b">Total Stars</text>
  </g>
  <g font-family="'Segoe UI', Helvetica, Arial, sans-serif" transform="translate(376,60)">
    <text font-size="26" font-weight="700" fill="#22d3ee">1</text>
    <text y="20" font-size="11" fill="#64748b">Total Forks</text>
  </g>
  <g font-family="'Segoe UI', Helvetica, Arial, sans-serif" transform="translate(552,60)">
    <text font-size="26" font-weight="700" fill="#22d3ee">9</text>
    <text y="20" font-size="11" fill="#64748b">Followers</text>
  </g>

  <line x1="24" y1="110" x2="736" y2="110" stroke="#1f2937"/>

  <text x="24" y="132" font-family="'Segoe UI', Helvetica, Arial, sans-serif" font-size="12" font-weight="700" fill="#e2e8f0" letter-spacing="0.5">TOP LANGUAGES BY REPO COUNT</text>
  <g font-family="'Segoe UI', Helvetica, Arial, sans-serif" transform="translate(24,150)">
    <text x="0" y="14" font-size="12" fill="#cbd5e1">Python</text>
    <rect x="120" y="3" width="240" height="10" rx="5" fill="#0f2036"/>
    <rect x="120" y="3" width="60" height="10" rx="5" fill="#22d3ee"/>
    <text x="368" y="13" font-size="11" fill="#64748b">25%</text>
    <text x="0" y="42" font-size="12" fill="#cbd5e1">Perl</text>
    <rect x="120" y="31" width="240" height="10" rx="5" fill="#0f2036"/>
    <rect x="120" y="31" width="50" height="10" rx="5" fill="#0ea5e9"/>
    <text x="368" y="41" font-size="11" fill="#64748b">21%</text>
    <text x="0" y="70" font-size="12" fill="#cbd5e1">C</text>
    <rect x="120" y="59" width="240" height="10" rx="5" fill="#0f2036"/>
    <rect x="120" y="59" width="50" height="10" rx="5" fill="#818cf8"/>
    <text x="368" y="69" font-size="11" fill="#64748b">21%</text>
    <text x="0" y="98" font-size="12" fill="#cbd5e1">Java</text>
    <rect x="120" y="87" width="240" height="10" rx="5" fill="#0f2036"/>
    <rect x="120" y="87" width="43" height="10" rx="5" fill="#f59e0b"/>
    <text x="368" y="97" font-size="11" fill="#64748b">18%</text>
    <text x="0" y="126" font-size="12" fill="#cbd5e1">HTML</text>
    <rect x="120" y="115" width="240" height="10" rx="5" fill="#0f2036"/>
    <rect x="120" y="115" width="34" height="10" rx="5" fill="#34d399"/>
    <text x="368" y="125" font-size="11" fill="#64748b">14%</text>
  </g>
</svg>
